<?xml version="1.0" encoding="UTF-8"?>
<svg xmlns="http://www.w3.org/2000/svg" xmlns:xlink="http://www.w3.org/1999/xlink" viewBox="0 0 80 80" width="80px" height="80px">
<g id="surface117803619">
<path style=" stroke:none;fill-rule:nonzero;fill:rgb(94.509804%,76.862746%,5.882353%);fill-opacity:1;" d="M 72.4375 3.71875 C 72.132812 3.390625 71.707031 3.199219 71.257812 3.199219 L 8.742188 3.199219 C 8.292969 3.199219 7.867188 3.390625 7.5625 3.71875 C 7.257812 4.050781 7.109375 4.496094 7.148438 4.941406 L 12.78125 68.027344 C 12.839844 68.683594 13.300781 69.238281 13.9375 69.421875 L 39.550781 76.738281 C 39.695312 76.777344 39.84375 76.800781 39.992188 76.800781 C 40.136719 76.800781 40.285156 76.777344 40.429688 76.738281 L 66.066406 69.421875 C 66.703125 69.238281 67.164062 68.683594 67.222656 68.027344 L 72.851562 4.941406 C 72.890625 4.496094 72.742188 4.050781 72.4375 3.71875 Z M 19.199219 46.40625 L 30.398438 49.511719 L 30.398438 17.601562 L 36.800781 17.601562 L 36.800781 59.199219 L 19.199219 54.320312 Z M 60.886719 35.199219 L 59.199219 54.800781 L 43.199219 59.199219 L 43.199219 51.839844 L 54 48.871094 L 54.398438 42.871094 L 43.199219 44.800781 L 43.199219 17.601562 L 62.398438 17.601562 L 61.847656 24 L 49.601562 24 L 49.601562 36.800781 Z M 60.886719 35.199219 "/>
</g>
</svg>
