<?xml version="1.0" encoding="UTF-8"?>
<svg xmlns="http://www.w3.org/2000/svg" xmlns:xlink="http://www.w3.org/1999/xlink" viewBox="0 0 80 80" width="80px" height="80px">
<g id="surface118135487">
<path style=" stroke:none;fill-rule:nonzero;fill:rgb(94.509804%,76.862746%,5.882353%);fill-opacity:1;" d="M 68.332031 8.332031 L 11.667969 8.332031 L 16.667969 65 L 40 71.667969 L 63.332031 65 Z M 68.332031 8.332031 "/>
<path style=" stroke:none;fill-rule:nonzero;fill:rgb(94.901961%,80.000001%,19.607843%);fill-opacity:1;" d="M 40 13.332031 L 40 66.5 L 58.667969 61.167969 L 62.832031 13.332031 Z M 40 13.332031 "/>
<path style=" stroke:none;fill-rule:nonzero;fill:rgb(100%,100%,100%);fill-opacity:1;" d="M 55.167969 21.667969 L 40 21.667969 L 40 28.332031 L 48.167969 28.332031 L 47.667969 35 L 40 35 L 40 41.667969 L 47.332031 41.667969 L 46.832031 49.167969 L 40 51.5 L 40 58.5 L 53.167969 54.167969 L 54.332031 35 Z M 55.167969 21.667969 "/>
<path style=" stroke:none;fill-rule:nonzero;fill:rgb(93.333334%,93.333334%,93.333334%);fill-opacity:1;" d="M 40 21.667969 L 40 28.332031 L 25.167969 28.332031 L 24.667969 21.667969 Z M 32.332031 35 L 32.667969 41.667969 L 40 41.667969 L 40 35 Z M 33 45 L 26.332031 45 L 26.832031 54.167969 L 40 58.5 L 40 51.5 L 33.167969 49.167969 Z M 33 45 "/>
</g>
</svg>
