<svg xmlns="http://www.w3.org/2000/svg" version="1.1" xmlns:xlink="http://www.w3.org/1999/xlink" xmlns:svgjs="http://svgjs.com/svgjs" width="768" height="1500" preserveAspectRatio="none" viewBox="0 0 768 1500"><g mask="url(&quot;#SvgjsMask1034&quot;)" fill="none"><rect width="768" height="1500" x="0" y="0" fill="#0e2a47"></rect><path d="M94.95321803001004 1140.6726420963155L192.15062213732466 1185.9965359843425 211.5377609157078 1017.5384828793572z" fill="rgba(28, 83, 142, 0.4)" class="triangle-float2"></path><path d="M421.84523359870104 891.8683429520169L176.8082075684891 887.357605137254 277.3864755719207 1076.517815610004z" fill="rgba(28, 83, 142, 0.4)" class="triangle-float1"></path><path d="M399.8866281247473 919.2971914395533L316.7089098593723 812.8345669608732 210.2462853806921 896.0122852262482 293.42400364606715 1002.4749097049283z" fill="rgba(28, 83, 142, 0.4)" class="triangle-float3"></path><path d="M686.2269709137089 655.0913480867664L733.7630737393994 565.6889414430657 575.8914123610032 539.0859905263803z" fill="rgba(28, 83, 142, 0.4)" class="triangle-float2"></path><path d="M797.5672436374327 1030.028944686739L648.4969658446793 1003.5973238351327 691.583769728583 1128.7304883590507z" fill="rgba(28, 83, 142, 0.4)" class="triangle-float1"></path><path d="M595.891,1304.616C655.591,1303.673,718.875,1290.048,749.506,1238.797C780.768,1186.491,766.865,1121.755,736.89,1068.701C706.328,1014.608,658.013,965.915,595.891,966.907C534.983,967.879,493.278,1020.526,462.479,1073.082C431.207,1126.445,402.754,1190.195,433.634,1243.786C464.543,1297.427,533.99,1305.594,595.891,1304.616" fill="rgba(28, 83, 142, 0.4)" class="triangle-float1"></path><path d="M158.34171342314212 573.4676053619684L111.02158353007657 728.2447761297115 265.7987542978197 775.564906022777 313.1188841908853 620.7877352550339z" fill="rgba(28, 83, 142, 0.4)" class="triangle-float3"></path><path d="M553.639,865.921C619.998,870.861,691.743,849.646,724.472,791.708C756.826,734.434,733.931,664.868,698.536,609.421C666.211,558.784,613.636,527.159,553.639,524.094C487.164,520.698,412.14,534.558,380.612,593.18C350.023,650.055,387.233,714.647,421.828,769.178C453.12,818.503,495.386,861.585,553.639,865.921" fill="rgba(28, 83, 142, 0.4)" class="triangle-float2"></path><path d="M220.351,420.767C251.382,420.72,279.049,403.426,295.409,377.058C312.807,349.017,319.782,314.389,304.503,285.139C288.16,253.852,255.649,233.226,220.351,233.369C185.281,233.512,153.66,254.758,137.376,285.818C122.151,314.858,127.726,349.354,144.9,377.286C161.196,403.789,189.239,420.814,220.351,420.767" fill="rgba(28, 83, 142, 0.4)" class="triangle-float1"></path><path d="M669.798,1385.404C739.924,1382.986,791.589,1329.411,828.55,1269.767C868.297,1205.627,906.619,1128.505,869.817,1062.631C832.47,995.781,746.236,981.03,669.798,985.605C602.007,989.663,542.504,1026.217,507.357,1084.327C470.79,1144.785,457.335,1219.225,490.885,1281.408C525.991,1346.475,595.909,1387.951,669.798,1385.404" fill="rgba(28, 83, 142, 0.4)" class="triangle-float1"></path><path d="M550.803,1226.352C581.005,1227.031,610.269,1210.332,623.509,1183.178C635.534,1158.514,623.786,1130.684,608.585,1107.841C595.323,1087.912,574.732,1074.591,550.803,1073.921C525.586,1073.214,500.631,1083.129,487.126,1104.437C472.652,1127.273,471.033,1156.064,483.55,1180.029C497.057,1205.889,521.635,1225.696,550.803,1226.352" fill="rgba(28, 83, 142, 0.4)" class="triangle-float3"></path><path d="M136.67933374202158 521.0799552287306L93.59751979680728 408.84799283287987-18.63444259904344 451.92980677809413 24.447371346170854 564.1617691739449z" fill="rgba(28, 83, 142, 0.4)" class="triangle-float3"></path><path d="M-3.219,1193.966C28.324,1192.304,56.202,1174.733,71.885,1147.314C87.452,1120.097,87.982,1087.458,73.651,1059.571C57.886,1028.894,31.219,1003.074,-3.219,1001.165C-40.776,999.083,-77.49,1017.638,-96.421,1050.142C-115.466,1082.843,-113.99,1124.266,-93.41,1156.024C-74.4,1185.36,-38.128,1195.805,-3.219,1193.966" fill="rgba(28, 83, 142, 0.4)" class="triangle-float2"></path><path d="M723.86,1529.492C778.642,1526.686,832.586,1509.714,862.65,1463.832C895.839,1413.181,906.682,1348.058,877.52,1294.986C847.413,1240.194,786.289,1207.893,723.86,1211.252C666.314,1214.349,626.708,1261.097,596.402,1310.114C563.784,1362.87,526.889,1425.804,558.048,1479.434C589.134,1532.939,662.061,1532.657,723.86,1529.492" fill="rgba(28, 83, 142, 0.4)" class="triangle-float2"></path><path d="M487.14565659598577 1007.7308079610298L640.4584445684313 883.5805601763319 362.9954088112879 854.4180199885841z" fill="rgba(28, 83, 142, 0.4)" class="triangle-float1"></path><path d="M717.256,1625.126C799.337,1626.995,891.657,1610.377,929.766,1537.655C966.368,1467.808,915.133,1391.771,875.165,1323.794C836.028,1257.232,794.235,1182.253,717.256,1176.226C632.078,1169.557,551.413,1220.568,509.797,1295.186C469.177,1368.018,476.481,1457.747,520.871,1528.345C562.507,1594.562,639.057,1623.346,717.256,1625.126" fill="rgba(28, 83, 142, 0.4)" class="triangle-float1"></path><path d="M658.888,1213.335C677.762,1212.727,695.407,1203.118,704.45,1186.54C713.146,1170.6,709.18,1152.119,701.172,1135.822C691.781,1116.711,680.181,1094.06,658.888,1093.815C637.398,1093.568,624.975,1115.855,614.887,1134.831C605.621,1152.261,598.293,1172.427,607.944,1189.647C617.758,1207.156,638.826,1213.981,658.888,1213.335" fill="rgba(28, 83, 142, 0.4)" class="triangle-float2"></path><path d="M631.2726681737295 41.74146197812078L529.8510812928437 93.41834162204233 658.0771941991688 219.71228212141008z" fill="rgba(28, 83, 142, 0.4)" class="triangle-float1"></path><path d="M311.0117427160742 267.2116637158405L396.5640542623136 112.87120811256568 156.6712871127994 181.65935216960105z" fill="rgba(28, 83, 142, 0.4)" class="triangle-float3"></path><path d="M262.419,260.841C299.511,259.855,335.871,248.085,356.765,217.422C380.701,182.293,393.496,136.36,372.377,99.468C351.163,62.409,305.113,51.795,262.419,52.61C221.402,53.393,180.819,68.482,159.499,103.531C137.377,139.898,135.666,187.056,158.971,222.677C180.538,255.642,223.04,261.887,262.419,260.841" fill="rgba(28, 83, 142, 0.4)" class="triangle-float1"></path></g><defs><mask id="SvgjsMask1034"><rect width="768" height="1500" fill="#ffffff"></rect></mask><style>
            @keyframes float1 {
                0%{transform: translate(0, 0)}
                50%{transform: translate(-10px, 0)}
                100%{transform: translate(0, 0)}
            }

            .triangle-float1 {
                animation: float1 5s infinite;
            }

            @keyframes float2 {
                0%{transform: translate(0, 0)}
                50%{transform: translate(-5px, -5px)}
                100%{transform: translate(0, 0)}
            }

            .triangle-float2 {
                animation: float2 4s infinite;
            }

            @keyframes float3 {
                0%{transform: translate(0, 0)}
                50%{transform: translate(0, -10px)}
                100%{transform: translate(0, 0)}
            }

            .triangle-float3 {
                animation: float3 6s infinite;
            }
        </style>
    </defs>
</svg>