<svg xmlns="http://www.w3.org/2000/svg" version="1.1" xmlns:xlink="http://www.w3.org/1999/xlink" xmlns:svgjs="http://svgjs.com/svgjs" width="1440" height="600" preserveAspectRatio="none" viewBox="0 0 1440 600"><g mask="url(&quot;#SvgjsMask1094&quot;)" fill="none"><path d="M1488 600L0 600 L0 341.05Q59.18 280.23, 120 339.4Q176.53 323.93, 192 380.46Q220.39 288.85, 312 317.24Q341.22 274.46, 384 303.68Q446.96 294.64, 456 357.61Q538.38 319.99, 576 402.36Q583.22 337.58, 648 344.8Q665.75 290.55, 720 308.29Q786.07 254.37, 840 320.44Q910.62 319.06, 912 389.68Q979.2 336.88, 1032 404.08Q1044.18 296.26, 1152 308.45Q1220.28 304.73, 1224 373Q1245.84 322.84, 1296 344.68Q1348.59 277.26, 1416 329.85Q1479.69 321.55, 1488 385.24z" fill="rgba(53, 202, 89, 1)"></path><path d="M1512 600L0 600 L0 449.21Q57.05 386.25, 120 443.3Q150.11 353.41, 240 383.53Q305.34 328.87, 360 394.21Q408.38 370.59, 432 418.97Q503.75 370.72, 552 442.46Q557.42 375.88, 624 381.3Q691.1 328.4, 744 395.5Q814.07 393.57, 816 463.64Q882.06 409.7, 936 475.77Q957.89 377.66, 1056 399.55Q1126.21 349.76, 1176 419.98Q1232.87 404.85, 1248 461.71Q1268.42 362.13, 1368 382.55Q1413.72 356.27, 1440 401.99Q1506.97 396.97, 1512 463.94z" fill="#25467d"></path><path d="M1488 600L0 600 L0 456.27Q106.72 442.99, 120 549.7Q125.83 483.53, 192 489.35Q257.37 434.72, 312 500.08Q390.93 459, 432 537.93Q434.29 468.22, 504 470.51Q531.49 426, 576 453.49Q633.37 438.86, 648 496.22Q721.68 449.9, 768 523.58Q770.7 454.28, 840 456.98Q884.25 429.24, 912 473.49Q1011.56 453.05, 1032 552.61Q1041.22 441.83, 1152 451.05Q1222.69 449.74, 1224 520.43Q1269.31 445.74, 1344 491.05Q1386.56 461.61, 1416 504.17Q1435.56 451.73, 1488 471.29z" fill="rgba(255, 215, 0, 1)"></path><path d="M1488 600L0 600 L0 620.97Q22.57 571.54, 72 594.11Q92.23 542.34, 144 562.56Q226.18 524.74, 264 606.93Q264.72 535.65, 336 536.37Q423.28 503.65, 456 590.94Q475.1 538.04, 528 557.14Q575.05 532.19, 600 579.24Q615.08 522.32, 672 537.39Q719.36 512.75, 744 560.1Q822.06 518.16, 864 596.22Q912.19 524.41, 984 572.61Q1013.04 529.65, 1056 558.7Q1114.84 545.54, 1128 604.38Q1153.81 510.19, 1248 536.01Q1315 483.01, 1368 550.01Q1459.24 521.25, 1488 612.5z" fill="white"></path></g><defs><mask id="SvgjsMask1094"><rect width="1440" height="600" fill="#ffffff"></rect></mask></defs></svg>