<svg xmlns="http://www.w3.org/2000/svg" version="1.1" xmlns:xlink="http://www.w3.org/1999/xlink" xmlns:svgjs="http://svgjs.com/svgjs" width="1000" height="560" preserveAspectRatio="none" viewBox="0 0 1000 560"><g mask="url(&quot;#SvgjsMask1021&quot;)" fill="none"><path d="M861.25 299.64L879.23 299.64L879.23 317.62L861.25 317.62z" fill="rgba(255, 215, 0, 1)"></path><path d="M334 460.63L376.2 460.63L376.2 493.7L334 493.7z" stroke="rgba(53, 202, 89, 1)"></path><path d="M543.11 5.65L581.38 5.65L581.38 57.2L543.11 57.2z" stroke="rgba(255, 215, 0, 1)"></path><path d="M268.96 359.71L304.94 359.71L304.94 374.93L268.96 374.93z" stroke="rgba(255, 215, 0, 1)"></path><path d="M815.59 440.77 a7.36 7.36 0 1 0 14.72 0 a7.36 7.36 0 1 0 -14.72 0z" stroke="rgba(255, 215, 0, 1)"></path><path d="M398.69 126.84 a22.83 22.83 0 1 0 45.66 0 a22.83 22.83 0 1 0 -45.66 0z" fill="rgba(65, 47, 150, 1)"></path><path d="M101.02 219.71a4.49 4.49 0 1 0-3.89-8.1z" fill="rgba(65, 47, 150, 1)"></path><path d="M197.39 552.72a16.34 16.34 0 1 0-23.35-22.86z" fill="rgba(255, 215, 0, 1)"></path><path d="M649.06 457.38a34.11 34.11 0 1 0 68.22 0.36z" stroke="rgba(65, 47, 150, 1)"></path><path d="M785.58 320.86 a54.95 54.95 0 1 0 109.9 0 a54.95 54.95 0 1 0 -109.9 0z" fill="rgba(255, 215, 0, 1)"></path><path d="M776.56 408.12a10.89 10.89 0 1 0-20.74-6.66z" stroke="rgba(255, 215, 0, 1)"></path><path d="M541.55 203.99L541.62 203.99L541.62 204.06L541.55 204.06z" fill="rgba(53, 202, 89, 1)"></path><path d="M5.33 90 a28.08 28.08 0 1 0 56.16 0 a28.08 28.08 0 1 0 -56.16 0z" fill="rgba(53, 202, 89, 1)"></path><path d="M118 312.49L122.74 312.49L122.74 317.23L118 317.23z" stroke="rgba(53, 202, 89, 1)"></path><path d="M171.48 179.77 a14.81 14.81 0 1 0 29.62 0 a14.81 14.81 0 1 0 -29.62 0z" stroke="rgba(65, 47, 150, 1)"></path><path d="M746.72 231.18L748.8 231.18L748.8 233.26L746.72 233.26z" stroke="rgba(53, 202, 89, 1)"></path><path d="M922.77 191.49a19.78 19.78 0 1 0-30.69 24.97z" stroke="rgba(65, 47, 150, 1)"></path><path d="M611.41 390.08a18.12 18.12 0 1 0 0.26 36.23z" fill="rgba(255, 215, 0, 1)"></path><path d="M193.26 361.26 a7.46 7.46 0 1 0 14.92 0 a7.46 7.46 0 1 0 -14.92 0z" fill="rgba(255, 215, 0, 1)"></path><path d="M809.84 495.57a9.85 9.85 0 1 0 17.48 9.09z" fill="rgba(65, 47, 150, 1)"></path><path d="M225.72 484.57L237.95 484.57L237.95 496.8L225.72 496.8z" stroke="rgba(65, 47, 150, 1)"></path><path d="M922.94 144.48a48.47 48.47 0 1 0 68.81-68.29z" stroke="rgba(53, 202, 89, 1)"></path><path d="M534.41 280.97L582.46 280.97L582.46 329.02L534.41 329.02z" stroke="rgba(53, 202, 89, 1)"></path></g><defs><mask id="SvgjsMask1021"><rect width="1000" height="560" fill="#ffffff"></rect></mask></defs></svg>